<svg xmlns="http://www.w3.org/2000/svg" xmlns:xlink="http://www.w3.org/1999/xlink" width="74" height="74" viewBox="0 0 74 74"><defs><style>.a{fill:#fff;stroke:#f1f1f1;}.b{fill:#231f20;}.c{stroke:none;}.d{fill:none;}.e{filter:url(#a);}</style><filter id="a" x="0" y="0" width="74" height="74" filterUnits="userSpaceOnUse"><feOffset input="SourceAlpha"/><feGaussianBlur stdDeviation="5" result="b"/><feFlood flood-opacity="0.102"/><feComposite operator="in" in2="b"/><feComposite in="SourceGraphic"/></filter></defs><g transform="translate(15 15)"><g class="e" transform="matrix(1, 0, 0, 1, -15, -15)"><g class="a" transform="translate(15 15)"><circle class="c" cx="22" cy="22" r="22"/><circle class="d" cx="22" cy="22" r="21.5"/></g></g><g transform="translate(17.6 13.2)"><path class="b" d="M20.528,24.945v-7.73h2.594l.388-3.012H20.528V12.28c0-.872.242-1.467,1.493-1.467h1.6V8.119A21.378,21.378,0,0,0,21.291,8a3.63,3.63,0,0,0-3.874,3.982V14.2h-2.6v3.012h2.6v7.73Z" transform="translate(-14.816 -8)"/></g></g></svg>