<svg xmlns="http://www.w3.org/2000/svg" width="44" height="44" viewBox="0 0 44 44"><defs><style>.a{fill:#231f20;}.b{fill:#fff;}</style></defs><circle class="a" cx="22" cy="22" r="22" transform="translate(0 0)"/><g transform="translate(13 13)"><path class="b" d="M15,18a3,3,0,1,1,3,3A3,3,0,0,1,15,18Zm-1.622,0A4.622,4.622,0,1,0,18,13.379,4.621,4.621,0,0,0,13.379,18Zm8.346-4.8a1.08,1.08,0,1,0,1.081-1.08h0a1.081,1.081,0,0,0-1.08,1.08ZM14.365,25.326a4.975,4.975,0,0,1-1.671-.31,2.98,2.98,0,0,1-1.708-1.708,4.971,4.971,0,0,1-.31-1.671c-.044-.949-.052-1.234-.052-3.637s.009-2.688.052-3.637a5.007,5.007,0,0,1,.31-1.671,2.979,2.979,0,0,1,1.708-1.709,4.971,4.971,0,0,1,1.671-.31c.949-.044,1.234-.052,3.636-.052s2.688.009,3.637.052a5.008,5.008,0,0,1,1.671.31,2.979,2.979,0,0,1,1.708,1.709,4.97,4.97,0,0,1,.31,1.671c.044.95.052,1.234.052,3.637s-.009,2.688-.052,3.637a4.993,4.993,0,0,1-.31,1.671,2.98,2.98,0,0,1-1.708,1.708,4.968,4.968,0,0,1-1.671.31c-.949.044-1.234.052-3.637.052S15.313,25.37,14.365,25.326ZM14.29,9.055a6.6,6.6,0,0,0-2.185.418,4.6,4.6,0,0,0-2.633,2.633,6.6,6.6,0,0,0-.418,2.185C9.011,15.249,9,15.556,9,18s.01,2.751.055,3.711A6.6,6.6,0,0,0,9.473,23.9a4.6,4.6,0,0,0,2.633,2.632,6.606,6.606,0,0,0,2.185.418C15.25,26.99,15.557,27,18,27s2.751-.01,3.711-.054a6.6,6.6,0,0,0,2.185-.418A4.6,4.6,0,0,0,26.529,23.9a6.584,6.584,0,0,0,.418-2.185C26.99,20.751,27,20.445,27,18s-.01-2.751-.054-3.711a6.6,6.6,0,0,0-.418-2.185A4.6,4.6,0,0,0,23.9,9.473a6.591,6.591,0,0,0-2.185-.418C20.753,9.011,20.446,9,18,9S15.25,9.01,14.29,9.055Z" transform="translate(-9.001 -9)"/></g></svg>