<svg xmlns="http://www.w3.org/2000/svg" xmlns:xlink="http://www.w3.org/1999/xlink" width="74" height="74" viewBox="0 0 74 74"><defs><style>.a{fill:#fff;stroke:#f1f1f1;}.b{fill:#231f20;}.c{stroke:none;}.d{fill:none;}.e{filter:url(#a);}</style><filter id="a" x="0" y="0" width="74" height="74" filterUnits="userSpaceOnUse"><feOffset input="SourceAlpha"/><feGaussianBlur stdDeviation="5" result="b"/><feFlood flood-opacity="0.102"/><feComposite operator="in" in2="b"/><feComposite in="SourceGraphic"/></filter></defs><g transform="translate(15 15)"><g class="e" transform="matrix(1, 0, 0, 1, -15, -15)"><g class="a" transform="translate(15 15)"><circle class="c" cx="22" cy="22" r="22"/><circle class="d" cx="22" cy="22" r="21.5"/></g></g><g transform="translate(14.3 14.3)"><path class="b" d="M14.135,16.7A2.567,2.567,0,1,1,16.7,19.267,2.567,2.567,0,0,1,14.135,16.7Zm-1.388,0A3.954,3.954,0,1,0,16.7,12.746,3.954,3.954,0,0,0,12.747,16.7Zm7.14-4.111a.924.924,0,1,0,.924-.924h0a.924.924,0,0,0-.924.924Zm-6.3,10.379a4.256,4.256,0,0,1-1.43-.265A2.55,2.55,0,0,1,10.7,21.242a4.253,4.253,0,0,1-.265-1.43c-.037-.812-.045-1.056-.045-3.112s.008-2.3.045-3.112a4.284,4.284,0,0,1,.265-1.43A2.548,2.548,0,0,1,12.16,10.7a4.253,4.253,0,0,1,1.43-.265c.812-.037,1.056-.045,3.111-.045s2.3.008,3.112.045a4.284,4.284,0,0,1,1.43.265A2.548,2.548,0,0,1,22.7,12.159a4.252,4.252,0,0,1,.265,1.43c.037.812.045,1.056.045,3.112s-.007,2.3-.045,3.112a4.272,4.272,0,0,1-.265,1.43A2.55,2.55,0,0,1,21.243,22.7a4.25,4.25,0,0,1-1.43.265c-.812.037-1.056.045-3.112.045S14.4,23.006,13.59,22.968ZM13.526,9.047a5.646,5.646,0,0,0-1.869.358A3.937,3.937,0,0,0,9.4,11.657a5.648,5.648,0,0,0-.358,1.869C9.009,14.347,9,14.609,9,16.7s.009,2.354.047,3.175A5.647,5.647,0,0,0,9.4,21.744,3.937,3.937,0,0,0,11.657,24a5.652,5.652,0,0,0,1.869.358c.821.037,1.084.047,3.175.047s2.354-.009,3.175-.047A5.648,5.648,0,0,0,21.745,24,3.937,3.937,0,0,0,24,21.744a5.633,5.633,0,0,0,.358-1.869c.037-.822.046-1.084.046-3.175s-.009-2.354-.046-3.175A5.647,5.647,0,0,0,24,11.657,3.938,3.938,0,0,0,21.745,9.4a5.639,5.639,0,0,0-1.869-.358C19.055,9.009,18.793,9,16.7,9S14.348,9.009,13.526,9.047Z" transform="translate(-9.001 -9)"/></g></g></svg>