<svg xmlns="http://www.w3.org/2000/svg" xmlns:xlink="http://www.w3.org/1999/xlink" width="231.5" height="46.568" viewBox="0 0 231.5 46.568"><defs><style>.a{fill:#fff;}.b{filter:url(#a);}</style><filter id="a" x="0" y="0" width="231.5" height="46.568" filterUnits="userSpaceOnUse"><feOffset dx="0.5" dy="0.5" input="SourceAlpha"/><feGaussianBlur stdDeviation="0.25" result="b"/><feFlood flood-color="#9b8163"/><feComposite operator="in" in2="b"/><feComposite in="SourceGraphic"/></filter></defs><g transform="translate(0.25 0.25)"><g class="b" transform="matrix(1, 0, 0, 1, -0.25, -0.25)"><path class="a" d="M169.812,45.068a2.419,2.419,0,0,1-.891-.155,2.079,2.079,0,0,1-.688-.437,1.92,1.92,0,0,1-.448-.688,2.456,2.456,0,0,1-.155-.894V37.467h.689v5.424a1.64,1.64,0,0,0,.108.6,1.354,1.354,0,0,0,.311.477,1.53,1.53,0,0,0,.474.319,1.6,1.6,0,0,0,1.661-.276,1.446,1.446,0,0,0,.426-1.11V37.467h.711V42.9a2.319,2.319,0,0,1-.17.909,1.972,1.972,0,0,1-1.158,1.11A2.564,2.564,0,0,1,169.812,45.068Zm-99.531,0a2.419,2.419,0,0,1-.891-.155,2.067,2.067,0,0,1-.689-.437,1.921,1.921,0,0,1-.449-.688,2.455,2.455,0,0,1-.155-.894V37.467h.688v5.424a1.6,1.6,0,0,0,.11.6,1.362,1.362,0,0,0,.311.477,1.554,1.554,0,0,0,.476.319,1.484,1.484,0,0,0,.6.12,1.507,1.507,0,0,0,1.06-.4,1.442,1.442,0,0,0,.427-1.11V37.467h.711V42.9a2.319,2.319,0,0,1-.17.909,2.034,2.034,0,0,1-.466.681,2.006,2.006,0,0,1-.7.429A2.553,2.553,0,0,1,70.281,45.068Zm-25.657,0a2.419,2.419,0,0,1-.891-.155,2.077,2.077,0,0,1-.689-.437,1.929,1.929,0,0,1-.448-.688,2.455,2.455,0,0,1-.155-.894V37.467h.685v5.424a1.627,1.627,0,0,0,.109.6,1.373,1.373,0,0,0,.311.477,1.554,1.554,0,0,0,.476.319,1.493,1.493,0,0,0,.6.12,1.514,1.514,0,0,0,1.061-.4,1.446,1.446,0,0,0,.426-1.11V37.467h.711V42.9a2.331,2.331,0,0,1-.17.909,2.02,2.02,0,0,1-.466.681,1.985,1.985,0,0,1-.694.429A2.564,2.564,0,0,1,44.625,45.068ZM181.652,45h-.689V37.465h.71c.03.078.078.2.141.341s.134.3.218.5.169.389.256.58.173.383.256.579.155.359.218.5.117.262.155.34l.883,2.1h.022l.91-2.121,1.239-2.826h.689v7.533h-.689V39.179l-.033.011-.863,2.058-1.017,2.284h-.5c-.04-.106-.122-.3-.2-.466-.113-.257-.211-.476-.306-.688-.115-.253-.215-.477-.306-.688-.1-.233-.168-.379-.208-.466L181.7,39.2l-.044.011V45Zm-38.774,0h-.689V37.465h2.3a2.01,2.01,0,0,1,1.5.536,2.075,2.075,0,0,1,.525,1.51,2.225,2.225,0,0,1-.35,1.266,1.887,1.887,0,0,1-1.061.737L146.606,45h-.777L144.4,41.6l-1.525.011V45Zm0-6.907v2.912h1.47a1.431,1.431,0,0,0,1.075-.389A1.545,1.545,0,0,0,145.8,39.5a1.41,1.41,0,0,0-.368-1.06,1.51,1.51,0,0,0-1.081-.353ZM82.12,45h-.688V37.465h2.3a2.009,2.009,0,0,1,1.5.536,2.072,2.072,0,0,1,.524,1.51,2.225,2.225,0,0,1-.35,1.266,1.886,1.886,0,0,1-1.06.737L85.849,45h-.777l-1.427-3.4-1.525.011V45Zm0-6.907v2.912h1.471a1.432,1.432,0,0,0,1.075-.389,1.545,1.545,0,0,0,.373-1.114,1.413,1.413,0,0,0-.367-1.06,1.51,1.51,0,0,0-1.081-.353ZM55.906,45h-.777l1.943-3.885-1.826-3.652h.765l1.443,3.009,1.422-3.009h.777l-1.836,3.652L59.773,45H59l-1.542-3.2L55.9,45Zm143.728,0h-3.946V37.465h3.946v.65h-3.257v2.739h2.8v.627h-2.8v2.848h3.257V45Zm-43.628,0h-.71V37.465h3.957v.65h-3.246v2.76h2.787V41.5h-2.787V45Zm-22.43,0h-3.947V37.465h3.947v.65h-3.258v2.739h2.8v.627h-2.8v2.848h3.258V45Zm-16.114,0h-.711V37.465h2.143a1.953,1.953,0,0,1,2.176,2.208,3.039,3.039,0,0,1-.114.835,1.9,1.9,0,0,1-.372.7,1.878,1.878,0,0,1-.66.488,2.391,2.391,0,0,1-.984.184h-1.476V45Zm0-6.884v3.108h1.424a1.735,1.735,0,0,0,.7-.125,1.171,1.171,0,0,0,.453-.336,1.321,1.321,0,0,0,.246-.5,2.368,2.368,0,0,0,.078-.6A1.671,1.671,0,0,0,120,38.53a1.429,1.429,0,0,0-1.127-.412h-1.41ZM96.5,45h-.688V41.863l-1.9-4.395h.733c.137.34.287.7.448,1.066.172.394.319.739.448,1.056.1.242.205.491.3.742s.2.492.3.741l.749-1.732.787-1.873H98.4l-1.9,4.395V45ZM33.988,45h-3.87V37.465h.689v6.863h3.181V45ZM99.049,27.389c-7.684,0-13.515-8.613-17.773-14.9l-.15-.221c-.328-.483-.637-.939-.942-1.383l0,.739.028,4.106v.938c0,.8-.012,1.787.031,2.249.111,1.213.445,1.771,3.174,2.02l.329.031v.91l-.389-.028c-1.148-.082-3.557-.138-5-.138-1.334,0-3.678.085-4.842.139l-.381.018v-.855l.311-.044c2.183-.311,2.894-.555,2.965-2.232.045-1.224.036-5.128.03-7.459V8.324c0-1.519.01-3.241-.032-4.387-.071-1.659-.84-1.916-3.021-2.229l-.311-.045V.837L73.7.826c.66,0,1.554.045,2.424.088C76.887.953,77.752,1,78.352,1c1.388,0,3.41-.1,4.5-.155h.064l.544-.027v.9l-.332.027c-2.322.2-2.767.744-2.859,2.183-.037.8-.057,1.709-.057,2.689l-.02,3.739c.64-.69,2.875-2.932,6.294-6.313,1.173-1.161,1.231-1.643,1.161-1.828-.078-.216-.5-.366-1.155-.412l-.337-.025V.817L91.1.968,94.673.813V1.8H94.31a7.692,7.692,0,0,0-1.851.286A11.015,11.015,0,0,0,89.2,4.3c-.249.24-.752.71-1.334,1.255l-.007.007c-1.2,1.123-3.208,3-4.041,3.837l.136.205c3.914,5.85,10.464,15.642,17.727,15.642a10.39,10.39,0,0,0,4.675-1.088l.249-.117.581.67-.263.233c-1.884,1.688-5.736,2.447-7.871,2.447Zm119.206-5.006c-6.518,0-11.432-4.711-11.432-10.956,0-7.172,6.036-11.042,11.715-11.042C225.287.381,230,4.773,230,11.061c0,6.455-5.051,11.321-11.745,11.321Zm-.338-20.332c-3.854,0-6.443,3.531-6.443,8.786,0,5.706,3.186,9.849,7.571,9.849,2.89,0,6.274-2.36,6.3-9.014C225.348,6.1,222.223,2.051,217.917,2.051ZM173.672,22.382c-6.518,0-11.432-4.711-11.432-10.956,0-7.172,6.036-11.042,11.715-11.042,6.749,0,11.463,4.392,11.463,10.68C185.417,17.516,180.368,22.382,173.672,22.382Zm-.338-20.331c-3.854,0-6.444,3.531-6.444,8.786,0,5.706,3.186,9.849,7.573,9.849,2.889,0,6.273-2.36,6.3-9.014C180.765,6.1,177.639,2.051,173.334,2.051ZM42.8,22.326c-2.91,0-5.149-.681-6.654-2.02A6.934,6.934,0,0,1,33.911,15.2c-.113-1.408-.113-3.92-.113-5.421V8.4c.005-1.532.012-3.264-.032-4.429-.07-1.664-.832-1.92-2.993-2.229L30.462,1.7V.865l.622-.011c.632,0,1.493.042,2.326.083h.006l.094,0c.81.04,1.647.082,2.229.082,1.418,0,3.46-.1,4.556-.155l.552-.028v.9l-.333.028c-2.321.2-2.767.742-2.859,2.181-.037.791-.054,1.7-.054,2.69l.055,6.038c.032,3.529.932,5.865,2.682,6.941a6.372,6.372,0,0,0,3.455.893,5.187,5.187,0,0,0,3.662-1.476c1.134-1.166,1.741-3.454,1.709-6.435L49.1,7.282c-.023-1.145-.051-2.443-.078-3.341-.071-1.657-.833-1.915-2.993-2.232l-.311-.045V.837l.612-.011c.594,0,1.276.043,1.936.084H48.3l.07,0c.637.04,1.3.078,1.858.078,1.156,0,2.362-.068,3.331-.124L54.746.806v.909l-.333.027c-2.321.2-2.767.744-2.86,2.183-.037.81-.055,1.714-.055,2.689V8.625c0,.389-.009.894-.018,1.385-.012.688-.027,1.467-.011,1.815,0,.048.029.474.029.772,0,2.429-.3,5.895-2.934,7.945A8.843,8.843,0,0,1,42.8,22.326Zm19.764-.112a9.2,9.2,0,0,1-5.828-2.209l-.148-.122.019-.19c.139-1.356.2-2.367.281-4.037l.018-.34h.879l.03.327c.284,3.178,2.072,4.929,5.032,4.929a3.341,3.341,0,0,0,3.448-3.3c0-1.575-.731-2.37-2.928-3.963-.355-.255-.726-.507-1.084-.75l-.053-.036c-2.347-1.594-4.773-3.243-4.773-6.553,0-3.187,2.824-5.5,6.716-5.5a10,10,0,0,1,4.859,1.122L69.2,1.7l0,.2c-.024,1.131.059,2.338.133,3.4l.054.815-.932.305L68.389,6C67.8,2.181,65.033,1.884,64.2,1.884a3.113,3.113,0,0,0-3.108,3.108c0,1.284.846,2.1,2.875,3.54.364.263.745.524,1.114.777l.1.07c2.433,1.661,4.949,3.378,4.949,6.491C70.131,20.253,66.332,22.214,62.566,22.214ZM14.285,21.88h-.657l-.1-.213c-.983-2.164-2.044-4.351-3.068-6.47l-.037-.078c-1.065-2.2-2.165-4.468-3.2-6.744-.415,2.865-.772,5.19-1.059,6.909-.278,1.657-.451,2.9-.476,3.4-.042,1.01.286,1.979,2.947,2.225l.329.031v.936l-.389-.026c-.762-.05-2.72-.166-4.382-.166-1.378,0-2.531.078-3.373.137L0,21.876v-.887l.306-.048c1.84-.287,2.862-.932,3.341-3.652L5.664,5.672c-.233-.584-.657-1.614-.824-1.948a3.346,3.346,0,0,0-2.86-1.984L1.668,1.7V.786l.4.044c.743.082,2.274.082,3.009.082,1.01,0,1.957-.03,2.6-.082L7.933.809l.106.233c1.184,2.6,2.44,5.539,3.548,8.131v.005c1.034,2.417,2.1,4.918,3.143,7.226,1.535-3.008,3.1-6.3,4.617-9.48l.03-.064.09-.189c.894-1.877,1.817-3.816,2.709-5.641l.11-.225.251.024c.594.055,1.889.109,2.422.109,1.021,0,1.8-.057,2.457-.11L27.805.8v.917l-.332.027c-2.259.192-2.65.688-2.747,2.183,0,.1.028.587.055.8.328,2.953.841,7.006,1.147,9.429v.009l.04.319.11.869s.005.051.014.128c.257,2.358.364,3.138.408,3.376.233,1.28.437,1.809,3.094,2.054l.329.031v.939l-.389-.028c-1.587-.113-3.7-.2-5.03-.2-1.842,0-3.461.1-4.8.2l-.389.029v-.894l.311-.046c2.123-.311,2.669-.568,2.74-2.232.04-.756-.326-3.984-.593-6.341l0-.041c-.1-.847-.189-1.654-.248-2.235-.037-.432-.122-1.117-.213-1.842-.038-.3-.071-.573-.1-.81-.656,1.42-1.075,2.363-1.412,3.12l-.049.11c-.964,2.17-1.448,3.26-5.361,11.012l-.1.2Zm173.671-.016h0l-.024-.909.311-.042c2.263-.311,3.061-.565,3.132-2.233.044-1.19.036-5,.031-7.27V9.773c0-1.709,0-4.3-.056-5.832-.071-1.657-.834-1.915-2.995-2.229l-.311-.045V.837l.622-.011c.659,0,1.554.045,2.425.088.766.039,1.632.083,2.23.083,1.389,0,3.411-.1,4.5-.155h.062l.544-.027v.9l-.333.027c-2.32.2-2.766.744-2.859,2.183-.037.807-.056,1.709-.056,2.689l-.029,5.652c0,.317.008.855.016,1.484l.006.444v.168c.015,1.094.032,2.331.032,3.271a2.259,2.259,0,0,0,.525,1.684,2.556,2.556,0,0,0,1.865.587h.144c1.484-.028,1.957-.057,3.03-.138,1.729-.124,2.584-.456,3.526-3.117l.137-.389.845.421-.821,3.878c-.095.452-.272,1.294-1.653,1.294h-.157c-2.378-.085-4.623-.165-7.018-.165-2.427,0-4.773.078-7.257.165h-.049l-.375.013Zm-44.586,0h0l-.02-.909.311-.042c2.263-.311,3.061-.565,3.131-2.233.046-1.243.036-5.255.031-7.412V9.773c0-1.709,0-4.3-.057-5.832-.071-1.657-.833-1.915-2.995-2.229l-.311-.045V.837l.622-.011c.66,0,1.554.045,2.426.088.765.039,1.632.083,2.229.083,1.428,0,3.539-.107,4.554-.159l.553-.027v.9l-.332.027c-2.322.2-2.768.743-2.86,2.183-.037.8-.057,1.7-.057,2.689l-.026,5.652c0,.394.01,1.137.022,1.928v.175c.015,1.088.032,2.331.032,3.264a2.253,2.253,0,0,0,.524,1.684,2.557,2.557,0,0,0,1.865.587h.144c1.485-.028,1.957-.057,3.03-.138,1.728-.124,2.584-.456,3.525-3.117l.136-.389.846.42-.82,3.878a1.437,1.437,0,0,1-1.654,1.294h-.095c-2.395-.086-4.654-.167-7.079-.167s-4.778.078-7.264.165h-.044l-.375.013Zm-18.833,0h0l-.02-.909.311-.042c2.263-.311,3.061-.565,3.132-2.233.044-1.194.036-5.011.031-7.292V9.773c0-1.709,0-4.3-.056-5.832-.071-1.657-.834-1.915-2.995-2.229l-.311-.045V.837l.622-.011c.657,0,1.554.045,2.424.088.766.039,1.632.083,2.231.083,1.426,0,3.539-.107,4.554-.159l.553-.027v.9l-.332.027c-2.323.2-2.769.744-2.86,2.183-.037.8-.057,1.7-.057,2.689l-.026,5.652c0,.381.009,1.076.02,1.881v.216c.015,1.093.032,2.331.032,3.27a2.253,2.253,0,0,0,.525,1.684,2.557,2.557,0,0,0,1.865.587h.144c1.485-.028,1.957-.057,3.03-.138,1.728-.124,2.584-.456,3.525-3.117l.136-.389.846.42-.821,3.878a1.434,1.434,0,0,1-1.654,1.294h-.095c-2.395-.086-4.654-.167-7.079-.167s-4.777.078-7.264.165H124.9l-.375.013ZM106,21.855h0v-.9l.311-.045c2.19-.311,2.753-.574,2.824-2.233.045-1.221.036-5.09.03-7.4v-1.5c0-1.791,0-4.244-.055-5.776-.071-1.652-.639-1.912-2.852-2.231l-.311-.045V.8l.395.034c1.87.155,5.971.166,6.775.166l4.205-.029h.622c1.513,0,1.936-.063,2.293-.64l.2-.328.716.507-.062.239a10.974,10.974,0,0,0-.253,1.759v.013c-.016.186-.031.363-.047.483-.059.544-.091,1.439-.115,2.094v.019c-.007.218-.015.439-.023.622l-.017.342h-.932l-.033-.327a2.89,2.89,0,0,0-3.121-3.025l-1.464-.03h-2.116V9.972c1.107-.009,3.714-.044,4.487-.054h.031c1.263-.023,1.42-.422,1.8-1.385h0l.09-.233.26-.032a.582.582,0,0,1,.426.217l.137.135-.036.187a17.3,17.3,0,0,0-.276,2.477c0,.473.009,1.073.018,1.65v.212c0,.3.007.555.007.711v.4l-.953-.106-.025-.294c-.1-1.107-.294-2.025-1.734-2.047l-4.235-.078.028,5.895c0,1.709.379,2.471,2.629,2.471h.221a14.309,14.309,0,0,0,1.909-.126l.089-.011c1.518-.179,2.462-.741,3.4-3.317l.138-.382.855.423-1.059,4.2a1.068,1.068,0,0,1-1.172.972h-.005c-.77-.01-1.536-.033-2.386-.059-1.253-.038-2.672-.078-4.386-.078-.979,0-2.232.033-3.444.066-1.072.029-2.288.061-3.413.074Z" transform="translate(0.25 0.25)"/></g></g></svg>