<svg xmlns="http://www.w3.org/2000/svg" xmlns:xlink="http://www.w3.org/1999/xlink" width="222.56" height="44.816" viewBox="0 0 222.56 44.816"><defs><style>.a{fill:#231f20;}.b{filter:url(#a);}</style><filter id="a" x="0" y="0" width="222.56" height="44.816" filterUnits="userSpaceOnUse"><feOffset dx="0.5" dy="0.5" input="SourceAlpha"/><feGaussianBlur stdDeviation="0.25" result="b"/><feFlood flood-color="#9b8163"/><feComposite operator="in" in2="b"/><feComposite in="SourceGraphic"/></filter></defs><g transform="translate(0.25 0.25)"><g class="b" transform="matrix(1, 0, 0, 1, -0.25, -0.25)"><path class="a" d="M163.212,43.316a2.325,2.325,0,0,1-.857-.149,2,2,0,0,1-.662-.42,1.846,1.846,0,0,1-.431-.661,2.36,2.36,0,0,1-.149-.859V36.011h.662v5.214a1.577,1.577,0,0,0,.1.577,1.3,1.3,0,0,0,.3.459,1.47,1.47,0,0,0,.456.306,1.541,1.541,0,0,0,1.6-.265,1.39,1.39,0,0,0,.409-1.066V36.011h.683v5.223a2.229,2.229,0,0,1-.164.874,1.9,1.9,0,0,1-1.113,1.067A2.465,2.465,0,0,1,163.212,43.316Zm-95.662,0a2.325,2.325,0,0,1-.857-.149,1.987,1.987,0,0,1-.662-.42,1.847,1.847,0,0,1-.432-.661,2.36,2.36,0,0,1-.149-.859V36.011h.662v5.214a1.539,1.539,0,0,0,.105.577,1.309,1.309,0,0,0,.3.459,1.494,1.494,0,0,0,.458.306,1.426,1.426,0,0,0,.578.115,1.448,1.448,0,0,0,1.019-.38,1.386,1.386,0,0,0,.41-1.066V36.011h.683v5.223a2.229,2.229,0,0,1-.164.874,1.955,1.955,0,0,1-.448.655,1.928,1.928,0,0,1-.668.412A2.453,2.453,0,0,1,67.549,43.316Zm-24.659,0a2.325,2.325,0,0,1-.857-.149,2,2,0,0,1-.662-.42,1.854,1.854,0,0,1-.431-.661,2.36,2.36,0,0,1-.149-.859V36.011h.658v5.214a1.564,1.564,0,0,0,.1.577,1.32,1.32,0,0,0,.3.459,1.494,1.494,0,0,0,.457.306,1.435,1.435,0,0,0,.578.115,1.455,1.455,0,0,0,1.019-.38,1.39,1.39,0,0,0,.409-1.066V36.011H45v5.223a2.24,2.24,0,0,1-.164.874,1.942,1.942,0,0,1-.448.655,1.908,1.908,0,0,1-.667.412A2.465,2.465,0,0,1,42.89,43.316Zm131.7-.063h-.662V36.009h.683c.028.075.075.19.136.328s.128.293.21.483.162.373.246.557.167.368.246.556.149.345.21.484.112.252.149.326l.848,2.016h.021l.875-2.039,1.19-2.716h.662v7.24h-.662v-5.59l-.031.01-.83,1.978-.978,2.195h-.483c-.039-.1-.117-.284-.188-.448-.109-.247-.2-.457-.294-.661-.111-.243-.207-.459-.294-.661-.1-.224-.161-.364-.2-.448l-.809-1.945-.042.01v5.566Zm-37.266,0h-.662V36.009h2.207a1.932,1.932,0,0,1,1.44.515,1.994,1.994,0,0,1,.5,1.451,2.139,2.139,0,0,1-.336,1.217,1.814,1.814,0,0,1-1.019.708l1.45,3.349h-.747l-1.371-3.267-1.465.01v3.256Zm0-6.639v2.8h1.413a1.376,1.376,0,0,0,1.033-.373,1.485,1.485,0,0,0,.359-1.071,1.355,1.355,0,0,0-.353-1.019,1.451,1.451,0,0,0-1.039-.339Zm-58.4,6.639h-.661V36.009h2.208a1.931,1.931,0,0,1,1.439.515,1.992,1.992,0,0,1,.5,1.451,2.139,2.139,0,0,1-.336,1.217,1.813,1.813,0,0,1-1.019.708l1.449,3.349h-.747l-1.372-3.267-1.465.01v3.256Zm0-6.639v2.8h1.414a1.376,1.376,0,0,0,1.034-.373,1.485,1.485,0,0,0,.358-1.071,1.358,1.358,0,0,0-.353-1.019,1.451,1.451,0,0,0-1.039-.339Zm-25.2,6.639h-.747l1.867-3.734L53.1,36.009h.736L55.22,38.9l1.367-2.892h.747l-1.765,3.51,1.881,3.734H56.7l-1.482-3.078-1.494,3.078Zm138.141,0h-3.792V36.009h3.792v.624h-3.131v2.633h2.689v.6h-2.689v2.737h3.131v.643Zm-41.932,0h-.683V36.009h3.8v.624h-3.12v2.653h2.679v.6h-2.679v3.361Zm-21.559,0H124.59V36.009h3.794v.624h-3.131v2.633h2.689v.6h-2.689v2.737h3.131v.643Zm-15.488,0h-.683V36.009h2.06a1.877,1.877,0,0,1,2.091,2.122,2.92,2.92,0,0,1-.11.8,1.824,1.824,0,0,1-.358.672,1.805,1.805,0,0,1-.635.469,2.3,2.3,0,0,1-.946.177H112.9v2.995Zm0-6.617v2.987h1.368a1.668,1.668,0,0,0,.672-.12,1.125,1.125,0,0,0,.435-.323,1.269,1.269,0,0,0,.237-.478,2.276,2.276,0,0,0,.075-.578,1.606,1.606,0,0,0-.347-1.092,1.373,1.373,0,0,0-1.083-.4H112.9ZM92.744,43.253h-.661V40.236l-1.829-4.224h.7c.131.327.276.672.43,1.025.165.379.306.71.431,1.015.1.232.2.472.291.713s.189.473.293.712l.72-1.665.757-1.8h.693l-1.827,4.224v3.016Zm-60.077,0h-3.72V36.009h.662v6.6h3.057v.643ZM95.2,26.325c-7.385,0-12.99-8.279-17.082-14.323l-.144-.212c-.315-.464-.612-.9-.905-1.329l0,.71.027,3.946v.9c0,.766-.011,1.718.03,2.161.107,1.166.428,1.7,3.051,1.942l.317.03v.875L80.115,21c-1.1-.078-3.419-.133-4.806-.133-1.282,0-3.535.082-4.653.134l-.366.017v-.822l.3-.043c2.1-.3,2.781-.533,2.85-2.146.043-1.176.034-4.929.029-7.17V8c0-1.46.01-3.115-.031-4.217-.068-1.594-.807-1.842-2.9-2.143l-.3-.043V.8l.6-.01c.634,0,1.494.043,2.33.084.736.037,1.568.08,2.144.08,1.334,0,3.277-.1,4.321-.149h.061l.523-.026v.866l-.319.026c-2.232.19-2.659.715-2.748,2.1-.036.77-.055,1.643-.055,2.584L77.071,9.95c.615-.663,2.763-2.818,6.049-6.068C84.247,2.766,84.3,2.3,84.236,2.125c-.075-.208-.482-.352-1.111-.4L82.8,1.7V.786l4.757.145L90.993.781V1.73h-.349A7.394,7.394,0,0,0,88.865,2a10.587,10.587,0,0,0-3.137,2.127c-.24.231-.723.683-1.282,1.206l-.007.007c-1.153,1.079-3.083,2.885-3.883,3.688l.131.2c3.762,5.623,10.057,15.034,17.038,15.034a9.986,9.986,0,0,0,4.493-1.046l.24-.113.559.644-.252.224c-1.811,1.623-5.513,2.352-7.565,2.352Zm114.572-4.812c-6.264,0-10.988-4.528-10.988-10.53,0-6.893,5.8-10.613,11.26-10.613,6.486,0,11.016,4.218,11.016,10.261,0,6.2-4.854,10.881-11.288,10.881Zm-.325-19.541c-3.7,0-6.193,3.394-6.193,8.444,0,5.485,3.062,9.466,7.277,9.466,2.777,0,6.03-2.268,6.057-8.663C216.589,5.861,213.585,1.972,209.447,1.972ZM166.921,21.512c-6.264,0-10.988-4.528-10.988-10.53,0-6.893,5.8-10.613,11.26-10.613,6.487,0,11.017,4.221,11.017,10.265C178.209,16.835,173.356,21.512,166.921,21.512ZM166.6,1.972c-3.7,0-6.193,3.394-6.193,8.444,0,5.485,3.062,9.466,7.279,9.466,2.777,0,6.029-2.268,6.056-8.663C173.738,5.861,170.734,1.972,166.6,1.972ZM41.139,21.458c-2.8,0-4.948-.654-6.4-1.942a6.665,6.665,0,0,1-2.151-4.91c-.109-1.353-.109-3.768-.109-5.211V8.076c.005-1.472.011-3.137-.031-4.257-.067-1.6-.8-1.845-2.877-2.143l-.3-.043v-.8l.6-.01c.608,0,1.435.04,2.235.08h.006l.09,0c.778.039,1.583.079,2.142.079,1.363,0,3.326-.1,4.379-.149l.53-.027v.866l-.32.027c-2.231.189-2.659.713-2.748,2.1-.035.76-.052,1.63-.052,2.586l.053,5.8c.031,3.392.9,5.637,2.577,6.671a6.124,6.124,0,0,0,3.32.858,4.985,4.985,0,0,0,3.52-1.419c1.09-1.12,1.673-3.32,1.643-6.184L47.189,7c-.022-1.1-.049-2.348-.075-3.211-.068-1.592-.8-1.84-2.877-2.145l-.3-.043V.8l.589-.01c.571,0,1.226.041,1.861.081h.037l.067,0c.612.038,1.246.075,1.786.075,1.111,0,2.27-.066,3.2-.119l1.139-.06v.874l-.32.026c-2.231.19-2.659.715-2.749,2.1-.035.778-.053,1.647-.053,2.584V8.29c0,.373-.009.86-.017,1.331-.012.661-.026,1.41-.01,1.745,0,.046.028.456.028.742,0,2.335-.292,5.665-2.82,7.636A8.5,8.5,0,0,1,41.139,21.458Zm19-.108a8.838,8.838,0,0,1-5.6-2.123l-.142-.117.019-.183c.134-1.3.187-2.275.27-3.88l.017-.327h.845l.028.314c.273,3.055,1.991,4.737,4.836,4.737A3.211,3.211,0,0,0,63.72,16.6c0-1.514-.7-2.278-2.814-3.809-.341-.245-.7-.487-1.042-.721l-.051-.034c-2.255-1.532-4.588-3.117-4.588-6.3,0-3.063,2.715-5.287,6.455-5.287a9.615,9.615,0,0,1,4.67,1.078l.162.1,0,.192c-.023,1.087.057,2.247.128,3.27l.052.783-.9.294-.063-.406C65.163,2.1,62.505,1.811,61.7,1.811A2.992,2.992,0,0,0,58.718,4.8c0,1.234.813,2.016,2.763,3.4.35.253.716.5,1.071.747l.1.067c2.338,1.6,4.757,3.246,4.757,6.239C67.405,19.466,63.753,21.351,60.134,21.351Zm-46.4-.322H13.1l-.093-.2c-.945-2.08-1.964-4.182-2.949-6.218l-.035-.075C9,12.42,7.939,10.237,6.949,8.05c-.4,2.754-.742,4.988-1.018,6.64-.267,1.592-.434,2.783-.457,3.265-.04.971.275,1.9,2.833,2.139l.316.03v.9L8.249,21c-.733-.048-2.614-.16-4.211-.16-1.324,0-2.432.075-3.242.131l-.8.055v-.852l.294-.046c1.768-.276,2.751-.9,3.211-3.51L5.444,5.452C5.22,4.891,4.813,3.9,4.651,3.58A3.216,3.216,0,0,0,1.9,1.673l-.3-.041V.756L1.991.8C2.7.877,4.176.877,4.883.877,5.854.877,6.765.848,7.38.8l.245-.02.1.224c1.138,2.5,2.345,5.323,3.41,7.815v.005c.994,2.323,2.022,4.727,3.021,6.945,1.476-2.891,2.981-6.054,4.438-9.111l.029-.061.087-.181c.859-1.8,1.747-3.668,2.6-5.422L21.42.774,21.662.8c.571.053,1.816.1,2.328.1C24.971.9,25.723.848,26.351.8l.373-.031v.881l-.319.026c-2.171.184-2.547.661-2.64,2.1,0,.1.027.564.053.768.315,2.838.808,6.733,1.1,9.063v.009l.039.306.105.836s.005.049.013.123c.247,2.267.35,3.016.392,3.245.224,1.23.42,1.739,2.974,1.975l.316.03v.9L28.387,21c-1.526-.109-3.559-.187-4.834-.187-1.77,0-3.326.095-4.615.187l-.373.028V20.17l.3-.044c2.04-.3,2.565-.546,2.633-2.146.038-.727-.313-3.829-.57-6.095l0-.04c-.093-.814-.181-1.59-.238-2.148-.036-.415-.117-1.074-.2-1.77-.037-.291-.068-.551-.1-.778-.63,1.365-1.033,2.271-1.357,3l-.047.106c-.927,2.086-1.392,3.133-5.153,10.584l-.1.191Zm166.92-.016h0l-.023-.874.3-.04c2.175-.3,2.942-.543,3.01-2.146.043-1.144.034-4.8.03-6.987V9.394c0-1.643,0-4.133-.054-5.606-.069-1.592-.8-1.84-2.878-2.143l-.3-.043V.8l.6-.01c.633,0,1.494.043,2.331.084.736.037,1.568.08,2.143.08,1.335,0,3.279-.1,4.323-.149h.06l.523-.026v.866l-.32.026c-2.23.19-2.659.715-2.748,2.1-.036.775-.054,1.643-.054,2.584l-.028,5.432c0,.3.007.822.016,1.426l.006.426V13.8c.014,1.052.031,2.24.031,3.144a2.171,2.171,0,0,0,.5,1.618,2.457,2.457,0,0,0,1.792.565h.139c1.426-.027,1.88-.055,2.913-.133,1.662-.119,2.484-.438,3.389-3l.131-.373.813.4-.789,3.727c-.091.435-.261,1.243-1.589,1.243h-.151c-2.285-.081-4.444-.158-6.745-.158-2.332,0-4.588.075-6.975.158H181l-.36.013Zm-42.853,0h0l-.019-.874.3-.04c2.175-.3,2.942-.543,3.01-2.146.044-1.195.034-5.051.03-7.124V9.394c0-1.643,0-4.133-.055-5.606-.068-1.592-.8-1.84-2.878-2.143l-.3-.043V.8l.6-.01c.634,0,1.494.043,2.332.084.736.037,1.568.08,2.142.08,1.373,0,3.4-.1,4.377-.153l.532-.026v.869l-.319.026c-2.232.19-2.66.714-2.749,2.1-.036.769-.055,1.639-.055,2.584l-.025,5.432c0,.379.01,1.093.021,1.853v.168c.014,1.046.031,2.24.031,3.137a2.166,2.166,0,0,0,.5,1.618,2.458,2.458,0,0,0,1.792.565h.138c1.427-.027,1.881-.055,2.913-.133,1.661-.119,2.484-.438,3.388-3l.131-.373.813.4-.788,3.727A1.381,1.381,0,0,1,152.07,21h-.091c-2.3-.083-4.473-.161-6.8-.161s-4.592.075-6.982.158h-.043l-.361.013Zm-18.1,0h0l-.019-.874.3-.04c2.175-.3,2.942-.543,3.01-2.146.043-1.147.034-4.816.03-7.008V9.394c0-1.643,0-4.133-.054-5.606-.069-1.592-.8-1.84-2.878-2.143l-.3-.043V.8l.6-.01c.632,0,1.494.043,2.33.084.736.037,1.568.08,2.144.08,1.37,0,3.4-.1,4.377-.153l.532-.026v.869l-.319.026c-2.232.19-2.661.715-2.749,2.1-.036.769-.055,1.639-.055,2.584l-.025,5.432c0,.366.009,1.034.019,1.808V13.8c.014,1.051.031,2.24.031,3.143a2.166,2.166,0,0,0,.5,1.618,2.458,2.458,0,0,0,1.792.565h.138c1.427-.027,1.881-.055,2.913-.133,1.661-.119,2.484-.438,3.388-3l.131-.373.813.4-.789,3.727A1.379,1.379,0,0,1,133.97,21h-.091c-2.3-.083-4.474-.161-6.8-.161s-4.591.075-6.981.158h-.044l-.36.013Zm-17.821-.007h0v-.864l.3-.043c2.1-.3,2.646-.552,2.714-2.146.043-1.173.034-4.892.029-7.113V9.393c0-1.721,0-4.079-.053-5.551C104.8,2.254,104.249,2,102.122,1.7l-.3-.043V.765L102.2.8c1.8.149,5.739.16,6.512.16l4.042-.028h.6c1.454,0,1.86-.06,2.2-.615l.19-.315.689.488-.06.229a10.547,10.547,0,0,0-.243,1.691V2.42c-.015.178-.03.349-.046.464-.057.523-.087,1.383-.111,2.013v.018c-.007.21-.014.422-.022.6l-.016.329h-.9l-.031-.314a2.777,2.777,0,0,0-3-2.907L110.6,2.591h-2.034V9.585c1.064-.008,3.57-.042,4.312-.052h.03c1.214-.022,1.364-.406,1.73-1.332h0l.087-.224.25-.031a.559.559,0,0,1,.409.208l.131.13-.034.18a16.622,16.622,0,0,0-.265,2.381c0,.455.008,1.031.017,1.586v.2c0,.286.007.533.007.683V13.7l-.916-.1-.024-.283c-.093-1.064-.282-1.946-1.667-1.968l-4.07-.075.027,5.665c0,1.643.364,2.375,2.527,2.375h.212a13.753,13.753,0,0,0,1.835-.121l.086-.01c1.459-.172,2.366-.712,3.269-3.188l.133-.367.822.407-1.018,4.033a1.026,1.026,0,0,1-1.126.934h-.005c-.74-.01-1.476-.031-2.294-.057-1.2-.037-2.568-.075-4.216-.075-.941,0-2.146.032-3.31.063-1.031.028-2.2.059-3.281.071Z" transform="translate(0.25 0.25)"/></g></g></svg>