<svg xmlns="http://www.w3.org/2000/svg" width="55" height="52.549" viewBox="0 0 55 52.549"><g transform="translate(0 -11.398)"><g transform="translate(0 31.417)"><g transform="translate(0)"><path d="M54.738,208.215l-6.256-10.009a1.114,1.114,0,0,0-1-.626H7.444a1.114,1.114,0,0,0-1,.626L.187,208.215a1.137,1.137,0,0,0,0,1.251.991.991,0,0,0,1,.626h5v16.265a3.686,3.686,0,0,0,3.753,3.753H44.979a3.686,3.686,0,0,0,3.753-3.753V213.845a1.251,1.251,0,0,0-2.5,0v12.512a1.182,1.182,0,0,1-1.251,1.251H31.216v-21.27a1.251,1.251,0,0,0-2.5,0v21.27H9.947A1.182,1.182,0,0,1,8.7,226.357V208.84a1.182,1.182,0,0,0-1.251-1.251h-4l4.754-7.507H27.713l-4.379,6.881a1.276,1.276,0,0,1-1,.626H12.449a1.251,1.251,0,1,0,0,2.5h9.884a3.567,3.567,0,0,0,3.128-1.752l4.5-7.132,4.5,7.132a3.72,3.72,0,0,0,3.128,1.752h16.14a1.314,1.314,0,0,0,1.126-.626A1.151,1.151,0,0,0,54.738,208.215ZM37.6,207.589a1.114,1.114,0,0,1-1-.626l-4.379-6.881H46.731l4.754,7.507Z" transform="translate(0 -197.58)"/></g></g><g transform="translate(11.198 52.686)"><path d="M112.9,395.4H105.4a1.251,1.251,0,0,0,0,2.5H112.9a1.251,1.251,0,0,0,0-2.5Z" transform="translate(-104.146 -395.398)"/></g><g transform="translate(11.198 56.44)"><path d="M109.151,430.307H105.4a1.251,1.251,0,0,0,0,2.5h3.753a1.251,1.251,0,0,0,0-2.5Z" transform="translate(-104.146 -430.307)"/></g><g transform="translate(38.144 20.132)"><g transform="translate(0 0)"><path d="M357.218,93.529a1.434,1.434,0,0,0-1.626-.876,1.3,1.3,0,0,0-.751,1.626,10.538,10.538,0,0,1,.5,3.378,13.794,13.794,0,0,1-.25,2.252,1.267,1.267,0,0,0,1,1.5h.25a1.218,1.218,0,0,0,1.251-1,20.453,20.453,0,0,0,.25-2.753A15.729,15.729,0,0,0,357.218,93.529Z" transform="translate(-354.762 -92.629)"/></g></g><g transform="translate(13.7 11.398)"><g transform="translate(0 0)"><path d="M147.061,12.774a13.129,13.129,0,0,0-5.88-1.376,13.723,13.723,0,0,0-13.763,13.763,20.471,20.471,0,0,0,.25,2.753,1.218,1.218,0,0,0,1.251,1h.25a1.3,1.3,0,0,0,1-1.5,13.785,13.785,0,0,1-.25-2.252,11.214,11.214,0,0,1,11.26-11.26,10.758,10.758,0,0,1,4.88,1.126,1.232,1.232,0,0,0,1-2.252Z" transform="translate(-127.418 -11.398)"/></g></g><g transform="translate(22.458 15.151)"><g transform="translate(0 0)"><path d="M224.763,46.682a1.209,1.209,0,0,0-1.752,0l-9.133,9.133L211,52.938a1.239,1.239,0,1,0-1.752,1.752L213,58.443a1.209,1.209,0,0,0,1.752,0l10.009-10.009A1.209,1.209,0,0,0,224.763,46.682Z" transform="translate(-208.873 -46.307)"/></g></g></g></svg>