<svg xmlns="http://www.w3.org/2000/svg" width="12.243" height="19.97" viewBox="0 0 12.243 19.97"><defs><style>.a{fill:#000;}</style></defs><path class="a" d="M4.168-5.757A25.264,25.264,0,0,0,.487-4.53,10.163,10.163,0,0,0-1.859-3.164,4.327,4.327,0,0,0-3.1-1.653,3.963,3.963,0,0,0-3.459.01a4.051,4.051,0,0,0,.291,1.53A3.246,3.246,0,0,0-2.251,2.8a4.59,4.59,0,0,0,1.625.854A8.12,8.12,0,0,0,1.8,3.969a13.228,13.228,0,0,0,2.485-.24,17.662,17.662,0,0,0,2.523-.683V4.993a17.468,17.468,0,0,1-2.586.7,13.69,13.69,0,0,1-2.473.221A10.4,10.4,0,0,1-1.53,5.461,6.26,6.26,0,0,1-3.756,4.228,4.735,4.735,0,0,1-5.027,2.419a5.915,5.915,0,0,1-.4-2.182,6.372,6.372,0,0,1,.126-1.252,5.287,5.287,0,0,1,.436-1.271,6.326,6.326,0,0,1,.835-1.271A8.034,8.034,0,0,1-2.712-4.8a5.9,5.9,0,0,1-.828-.968,5.8,5.8,0,0,1-.569-1.05,5.781,5.781,0,0,1-.329-1.081,5.472,5.472,0,0,1-.108-1.062,4.939,4.939,0,0,1,.386-1.922,4.932,4.932,0,0,1,1.107-1.632,5.266,5.266,0,0,1,1.771-1.126,6.392,6.392,0,0,1,2.378-.417A9.376,9.376,0,0,1,2.037-14a9.483,9.483,0,0,1,1.031.164v2.15q-.493-.1-1.037-.171a8.467,8.467,0,0,0-1.075-.07,6.193,6.193,0,0,0-1.322.139,2.96,2.96,0,0,0-1.126.493,2.578,2.578,0,0,0-.784.942,3.251,3.251,0,0,0-.3,1.473,4.393,4.393,0,0,0,.348,1.764A3.61,3.61,0,0,0-1.233-5.77,19.54,19.54,0,0,1,1.113-6.857a27.69,27.69,0,0,1,3.054-.974Z" transform="translate(5.432 14.054)"/></svg>