<svg xmlns="http://www.w3.org/2000/svg" width="51.803" height="50.5" viewBox="0 0 51.803 50.5"><defs><style>.a{fill:#231f20;stroke:#231f20;stroke-width:0.5px;}</style></defs><g transform="translate(0.25 -6.25)"><g transform="translate(0 6.5)"><path class="a" d="M52.365,281.967h.8a1,1,0,0,0,0-2h-.8a1,1,0,0,0,0,2Z" transform="translate(-46.216 -252.562)"/><path class="a" d="M106.461,281.967a1,1,0,0,0,0-2h-6.078a1,1,0,0,0,0,2Z" transform="translate(-89.423 -252.562)"/><path class="a" d="M52.365,329.434h10.89a1,1,0,1,0,0-2H52.365a1,1,0,1,0,0,2Z" transform="translate(-46.216 -295.273)"/><path class="a" d="M39.351,26.565V9.759A3.265,3.265,0,0,0,36.088,6.5H3.26A3.263,3.263,0,0,0,0,9.759V21.671a1,1,0,0,0,2,0V9.759A1.257,1.257,0,0,1,3.26,8.5h9.294v13a1,1,0,0,0,1.528.853l5.592-3.447,5.592,3.447a1.011,1.011,0,0,0,1.528-.853V8.5h9.294a1.259,1.259,0,0,1,1.259,1.255V26.272q-.587-.046-1.185-.046A15.138,15.138,0,0,0,21.224,43.836H3.26A1.259,1.259,0,0,1,2,42.578V30.667a1,1,0,0,0-2,0V42.578a3.265,3.265,0,0,0,3.26,3.262H21.7A15.141,15.141,0,1,0,39.351,26.565ZM24.79,19.706,20.2,16.877a1,1,0,0,0-1.052,0l-4.59,2.829V8.5H24.79ZM36.162,54.5A13.133,13.133,0,1,1,49.3,41.363,13.15,13.15,0,0,1,36.162,54.5Z" transform="translate(0 -6.5)"/><path class="a" d="M288.882,265.124h-3.828l1.786-1.785a1,1,0,0,0-1.416-1.418l-3.5,3.5a1.012,1.012,0,0,0,0,1.418l3.5,3.5a1,1,0,0,0,1.416-1.418l-1.786-1.785h3.828a4.4,4.4,0,1,1,0,8.795h-9.041a1,1,0,1,0,0,2h9.041a6.4,6.4,0,1,0,0-12.8Z" transform="translate(-250.9 -236.064)"/><path class="a" d="M1,194.8a1,1,0,1,0-1-1v.006A1,1,0,0,0,1,194.8Z" transform="translate(0 -174.128)"/></g></g></svg>