<svg xmlns="http://www.w3.org/2000/svg" width="50" height="49.957" viewBox="0 0 50 49.957"><defs><style>.a{fill:#231f20;}</style></defs><path class="a" d="M19.443,49.543C4.386,46.442-4.068,29.765,1.96,15.672c6.847-16.5,28.111-20.862,40.5-7.815a1.953,1.953,0,0,1-2.814,2.708C26.685-3.21,3.809,6.659,3.919,25.378A20.824,20.824,0,0,0,19.9,45.692a1.953,1.953,0,0,1-.456,3.851ZM50,12.2V6.634a1.953,1.953,0,0,0-3.905,0V12.2a1.955,1.955,0,0,1-1.953,1.953H38.577a1.953,1.953,0,0,0,0,3.905h5.565A5.864,5.864,0,0,0,50,12.2ZM43.654,33.287a2.441,2.441,0,1,0,2.441-2.441A2.441,2.441,0,0,0,43.654,33.287Zm-4.2,7.127A2.441,2.441,0,1,0,41.9,37.974,2.441,2.441,0,0,0,39.456,40.414Zm-6.444,4.979a2.441,2.441,0,1,0,2.441-2.441A2.441,2.441,0,0,0,33.012,45.393Zm-8.1,2.343A2.441,2.441,0,1,0,27.35,45.3,2.441,2.441,0,0,0,24.909,47.737Zm.1-25.482-.08,0L19.25,16.666a1.953,1.953,0,1,0-2.74,2.782l5.579,5.495a2.929,2.929,0,1,0,2.918-2.688Z" transform="translate(0 -0.22)"/></svg>