<svg xmlns="http://www.w3.org/2000/svg" width="22" height="20" viewBox="0 0 22 20"><defs><style>.a{fill:#231F20;}</style></defs><path class="a" d="M23.415,10.3H16.192L14,3.885a.8.8,0,0,0-1.493,0l-2.2,6.413H3.036a.78.78,0,0,0-.786.769.554.554,0,0,0,.015.13.736.736,0,0,0,.329.543l5.937,4.1L6.252,22.322a.834.834,0,0,0,.712,1.053.976.976,0,0,0,.491-.173l5.795-4.043L19.045,23.2a.933.933,0,0,0,.491.173.713.713,0,0,0,.437-.188.753.753,0,0,0,.27-.865l-2.279-6.486L23.852,11.7l.142-.12a.8.8,0,0,0,.255-.514A.824.824,0,0,0,23.415,10.3Zm-6.246,4.447a1.334,1.334,0,0,0-.5,1.529l1.478,4.216a.2.2,0,0,1-.3.221l-3.8-2.654a1.392,1.392,0,0,0-.8-.25,1.366,1.366,0,0,0-.8.25l-3.8,2.649a.2.2,0,0,1-.3-.221l1.478-4.216a1.339,1.339,0,0,0-.506-1.538L5.344,11.986a.193.193,0,0,1,.113-.351H10.3a1.371,1.371,0,0,0,1.3-.918l1.454-4.24a.2.2,0,0,1,.373,0l1.454,4.24a1.371,1.371,0,0,0,1.3.918h4.778a.19.19,0,0,1,.113.346Z" transform="translate(-2.25 -3.375)"/></svg>