<svg xmlns="http://www.w3.org/2000/svg" width="18.015" height="16.377" viewBox="0 0 18.015 16.377"><defs><style>.a{fill:#fadc13;}</style></defs><path class="a" d="M19.581,9.044H13.666l-1.8-5.252a.656.656,0,0,0-1.222,0l-1.8,5.252H2.893a.639.639,0,0,0-.643.63.454.454,0,0,0,.012.106.6.6,0,0,0,.269.445l4.862,3.354L5.527,18.89a.683.683,0,0,0,.583.862.8.8,0,0,0,.4-.142L11.257,16.3,16,19.61a.764.764,0,0,0,.4.142.584.584,0,0,0,.358-.154.616.616,0,0,0,.221-.709l-1.866-5.311,4.821-3.386.117-.1a.655.655,0,0,0,.209-.421A.675.675,0,0,0,19.581,9.044Z" transform="translate(-2.25 -3.375)"/></svg>