<svg xmlns="http://www.w3.org/2000/svg" width="44" height="44" viewBox="0 0 44 44"><defs><style>.a{fill:#231f20;}.b{fill:#fff;}</style></defs><g transform="translate(0)"><circle class="a" cx="22" cy="22" r="22" transform="translate(0 0)"/><g transform="translate(13 15)"><path class="b" d="M26.186,16.652v.471A10.443,10.443,0,0,1,15.678,27.631,10.608,10.608,0,0,1,10,25.982c.283.024.589.047.872.047a7.476,7.476,0,0,0,4.594-1.579,3.656,3.656,0,0,1-3.44-2.568,3.424,3.424,0,0,0,.707.071,3.3,3.3,0,0,0,.966-.141,3.667,3.667,0,0,1-2.969-3.6V18.16a3.629,3.629,0,0,0,1.673.471,3.7,3.7,0,0,1-1.649-3.086,3.781,3.781,0,0,1,.495-1.861,10.509,10.509,0,0,0,7.61,3.864,3.345,3.345,0,0,1-.094-.848,3.7,3.7,0,0,1,6.385-2.545,7.506,7.506,0,0,0,2.356-.9,3.807,3.807,0,0,1-1.626,2.05A7.075,7.075,0,0,0,28,14.72,6.751,6.751,0,0,1,26.186,16.652Z" transform="translate(-10 -13)"/></g></g></svg>