<svg xmlns="http://www.w3.org/2000/svg" xmlns:xlink="http://www.w3.org/1999/xlink" width="74" height="74" viewBox="0 0 74 74"><defs><style>.a{fill:#fff;stroke:#f1f1f1;}.b{fill:#231f20;}.c{stroke:none;}.d{fill:none;}.e{filter:url(#a);}</style><filter id="a" x="0" y="0" width="74" height="74" filterUnits="userSpaceOnUse"><feOffset input="SourceAlpha"/><feGaussianBlur stdDeviation="5" result="b"/><feFlood flood-opacity="0.102"/><feComposite operator="in" in2="b"/><feComposite in="SourceGraphic"/></filter></defs><g transform="translate(15 15)"><g class="e" transform="matrix(1, 0, 0, 1, -15, -15)"><g class="a" transform="translate(15 15)"><circle class="c" cx="22" cy="22" r="22"/><circle class="d" cx="22" cy="22" r="21.5"/></g></g><g transform="translate(14.3 15.4)"><path class="b" d="M23.848,16.124v.4a8.935,8.935,0,0,1-8.99,8.99A9.076,9.076,0,0,1,10,24.107c.242.02.5.04.746.04A6.4,6.4,0,0,0,14.676,22.8a3.128,3.128,0,0,1-2.943-2.2,2.93,2.93,0,0,0,.6.06,2.827,2.827,0,0,0,.826-.121,3.138,3.138,0,0,1-2.54-3.084v-.04a3.105,3.105,0,0,0,1.431.4,3.165,3.165,0,0,1-1.411-2.641,3.235,3.235,0,0,1,.423-1.592,8.991,8.991,0,0,0,6.511,3.306,2.862,2.862,0,0,1-.081-.726,3.165,3.165,0,0,1,5.463-2.177,6.422,6.422,0,0,0,2.016-.766,3.257,3.257,0,0,1-1.391,1.754,6.053,6.053,0,0,0,1.814-.5A5.775,5.775,0,0,1,23.848,16.124Z" transform="translate(-10 -13)"/></g></g></svg>