<svg xmlns="http://www.w3.org/2000/svg" width="44" height="44" viewBox="0 0 44 44"><defs><style>.a{fill:#231f20;}.b{fill:#fff;fill-rule:evenodd;}</style></defs><g transform="translate(0)"><circle class="a" cx="22" cy="22" r="22" transform="translate(0 0)"/><g transform="translate(13.001 16)"><path class="b" d="M25.043,13.883a2.255,2.255,0,0,1,1.587,1.586A22.564,22.564,0,0,1,27,19.814a23.762,23.762,0,0,1-.371,4.329,2.255,2.255,0,0,1-1.587,1.586A54.755,54.755,0,0,1,18,26.1a52.784,52.784,0,0,1-7.043-.386,2.255,2.255,0,0,1-1.586-1.586A23.675,23.675,0,0,1,9,19.8a23.763,23.763,0,0,1,.371-4.329,2.3,2.3,0,0,1,1.586-1.6A54.766,54.766,0,0,1,18,13.5,52.672,52.672,0,0,1,25.043,13.883ZM20.891,19.8l-4.685,2.7V17.1Z" transform="translate(-9 -13.498)"/></g></g></svg>