<svg xmlns="http://www.w3.org/2000/svg" xmlns:xlink="http://www.w3.org/1999/xlink" width="74" height="74" viewBox="0 0 74 74"><defs><style>.a{fill:#fff;stroke:#f1f1f1;}.b{fill:#231f20;fill-rule:evenodd;}.c{stroke:none;}.d{fill:none;}.e{filter:url(#a);}</style><filter id="a" x="0" y="0" width="74" height="74" filterUnits="userSpaceOnUse"><feOffset input="SourceAlpha"/><feGaussianBlur stdDeviation="5" result="b"/><feFlood flood-opacity="0.102"/><feComposite operator="in" in2="b"/><feComposite in="SourceGraphic"/></filter></defs><g transform="translate(15 15)"><g class="e" transform="matrix(1, 0, 0, 1, -15, -15)"><g class="a" transform="translate(15 15)"><circle class="c" cx="22" cy="22" r="22"/><circle class="d" cx="22" cy="22" r="21.5"/></g></g><g transform="translate(14.3 16.5)"><path class="b" d="M22.725,13.827a1.929,1.929,0,0,1,1.357,1.357A19.3,19.3,0,0,1,24.4,18.9a20.33,20.33,0,0,1-.317,3.7,1.929,1.929,0,0,1-1.357,1.357,46.846,46.846,0,0,1-6.025.317,45.159,45.159,0,0,1-6.025-.33,1.929,1.929,0,0,1-1.357-1.357A20.255,20.255,0,0,1,9,18.889a20.331,20.331,0,0,1,.317-3.7,1.969,1.969,0,0,1,1.357-1.37A46.855,46.855,0,0,1,16.7,13.5,45.063,45.063,0,0,1,22.725,13.827Zm-3.552,5.061L15.165,21.2V16.58Z" transform="translate(-9 -13.498)"/></g></g></svg>